<svg xmlns="http://www.w3.org/2000/svg" xmlns:xlink="http://www.w3.org/1999/xlink" width="1080" height="50" viewBox="0 0 1080 50">
  <defs>
    <clipPath id="clip-path">
      <rect id="Rectangle_430" data-name="Rectangle 430" width="1080" height="37" fill="#fff"/>
    </clipPath>
  </defs>
  <g id="Group_14" data-name="Group 14" transform="translate(-691 2932)">
    <g id="torn-paper" transform="translate(691 -2919)" clip-path="url(#clip-path)">
      <g id="b" transform="translate(0 -48)">
        <g id="c">
          <g id="image">
            <path id="Path_3618" data-name="Path 3618" d="M1418.622,52.023c-4.683-1.123-6.663.489-9.575,1.276-4.1,4.3-6.1,5.392-10.833,6.678a22,22,0,0,1-13.139,1.43c-3.611-.844-3.727,1.055-6.709-1.267-4.24,1.535-11.9,2.341-16.144-.115-7.245-1.084-14.49,2.523-21.736,0-7.781-.806-12.86.154-19.662-2.082a14.814,14.814,0,0,0-12.627-1.084c-5.358-5-10.647-.393-16.145-1.362-5.661-.374-11.508-2.5-17.216-.106a133.243,133.243,0,0,0-16.424,1.919c-4.263-1.737-8.224-1.084-12.766,2.667-2.213-.509-3.727-.9-6.22.269-4.939.595-8.969,3.253-13.978,2.859-2.912-.317-5.009,1.554-7.874.94-7.991.633-16.331-4.941-24.368-.029-6.313-4.27-12.65,2.821-18.987-.038a36.486,36.486,0,0,1-18.917.374c-6.243-1.919-12.464,1.564-18.707.5-6.22-2.236-12.464-.3-18.684.633-6.616,2.8-13.862,2.015-19.779,2.4a33.8,33.8,0,0,0-14.071,1.593c-3.634,2.092-6.779.844-10.25,1.238-3.308-.288-7.012-3.262-10.041.6-2.959,1.19-4.286,2.8-6.756,2.034-9.016,2.015-19.5,3.579-29.866,2.005-6.173-2-12.324-2.495-18.5,0-5.335-.029-9.878-1.065-14.63-.652-2.772-2.034-3.7-2.456-6.08-2.034-5.381-.192-14.537.595-20.9-2.85-5.055,1.027-9.575,2.1-14.933-2.533-3.285-2.12-6.826.422-10.134.067-3.238,1.113-6.476-.777-9.715,0-2.493-1.084-4.962,2.351-7.455,0-5.847-.2-14.071-.681-19.709.067-2.679-.5-3.378,1.123-5.428,1.813-2.329-.518-4.147,1.257-6.942.959-6.64-2.667-12.836.768-19.569,1.852-10.577-.489-21.223-1.017-31.8-.019-6.43-.307-11.835-.134-18.078-1.334-10.157-1.334-19.569.461-30.076-1.343-4.589.173-9.761-.595-14.258-.029a6.094,6.094,0,0,0-5.381.643c-3.867,1.353-8.084,2.5-11.974.029a28,28,0,0,0-14.723,1.439c-3.4-.71-5.056.806-8.177,2.639-3.867,1.439-9.621-.019-13.908.624-5.2,4.356-10.437,1.362-15.632-.048-6.267-.595-11.788,1.065-17.193,1.41-5.428,2.744-10.74,1.3-16.61,2.149-6.034,2.168-12.347,3.262-18.684.652-6.337-2.216-12.72,1.717-18.893-.173-8.62-.441-18.195.336-26.768.029-9.365-.317-16.657-4.4-24.648-5.22-8.69-2.226-21.34-1.708-31.054-.816-7.571-3.09-14.886-1.41-21.712,1.842a1.452,1.452,0,0,0-2.819.24c-1.957-.844-3.215-2.639-5.451,2.216-2.982,3.847-7.851.576-11.3,2.255-3.984-1.593-9.249-2.2-13.326.067-7.595,1.871-13.978,1.43-21.736,2.082-5.1.979-10.134-1.727-15.1.269-5.731,2.418-11.765-.1-17.356,1.881-3.378-.489-6.01.336-9.761.48-6.5.422-14.327,2.38-20.757.048-9.528-.528-15.073-5.834-24.951-5.431-5.568-.163-10.9-1.5-16.191-.979-5.288-.643-10.53,1.622-15.865,2.178-5.754.739-11.881,1.861-18.055.979-6.174-.326-12.37,1.18-18.334-.086-7.129-.489-13.791-2.4-20.99-1.4-9.132,1.516-19.522-1.957-28.328.7-4.38.422-8.457,0-12.673,1.516-5.987.144-13.908,1.449-20.082,1.833-5.521,3.4-10.577,2.974-16,.662-6.639,1.708-11.159-.835-16.68-2.168-8.55-3.78-16.96-6.649-27.886-5.21-3.355.854-11.485.307-18.87-.115-7.385-2.4-14-1.727-14.281,2.092-3.168,3.013-5.754,1.871-8.992-1.334a130.673,130.673,0,0,0-15.865.048c-7.175-.662-16.238,1.027-23.157.115-1.561,1.362-3.378-.441-5.428,1.094-2.586-.413-5.172,3.406-7.758.3-5.824.269-9.575.921-13.628-1.842-2.027-1.775-2.353-1.6-4.892-3.128-2.912.038-6.523-2.351-9.412-3.2-6.639-4.98-19.872-2.4-24.6,1.478-2.7-.864-5.335-.672-9.319,2.994-2.772-.959-5.218,4.279-8.783,2.236-4.473,2.092-10.367-.768-15-.048V0H1405.39l3.425,13.49c.978,3.876,2.073,8.271,3.192,12.627,1.095,3.934,2.213,8.894,3.192,12.416.978,4.586,1.84,7.781,2.446,10.449.606,2.2.978,4.529.978,3.042Z" transform="translate(0.04)" fill="#92232a"/>
            <path id="Path_3619" data-name="Path 3619" d="M1418.932,47.836c-4.682-2.058-6.663-1.4-9.575.947-4.1,1.164-6.1,4.168-10.833,4.967-3.728,2.136-8.084,2.023-13.139,1.068-3.611,1.1-3.727,1.112-6.709-.938-4.24.773-11.9-2.084-16.144-.087-7.245,1.242-14.49-2.206-21.736,0-7.781-.356-12.86-1.242-19.662-1.546-4.053-3.144-8.224-1.381-12.627-.808-5.358-.208-10.646-.087-16.144-1.016-5.661,6.088-11.509-2.11-17.216-.078-5.708.408-11.276.764-16.424,1.433-4.263,1.563-8.224,1.537-12.766,1.98-2.213-.122-3.728-4.194-6.22.2-4.939-.365-8.969,3.1-13.978,2.128a9.626,9.626,0,0,1-7.874.695,104.913,104.913,0,0,1-24.368-.017,35.5,35.5,0,0,0-18.963-.026c-6.337-.756-12.65-1.832-18.917.278-6.244.408-12.464-1.2-18.707.373-6.22,1.893-12.464.79-18.684.469-6.616-3.222-13.861.712-19.779,1.789-4.706-.1-8.62,2.267-14.071,1.19-3.634,1.164-6.779-.243-10.25.921-3.308,2.049-7.012-.443-10.041.443-2.959,1.181-4.286,1.077-6.756,1.511-9.016.721-19.5,2.154-29.866,1.485-6.174-1.4-12.324-.017-18.5,0-5.335.512-9.878-4.741-14.63-.486-2.772-2.57-3.7-2.206-6.08-1.511-5.382-.521-14.537-1.059-20.9-2.119-5.055.226-9.575-1.433-14.933-1.884-3.285,2.006-6.826.921-10.134.052-3.238,1.641-6.476-1.025-9.715,0-2.493-.243-4.962-2.136-7.455,0-5.847.721-14.071-.1-19.709.043-2.679.955-3.378.052-5.428,1.346-2.33-.521-4.147,1.641-6.942.712-6.639,1.624-12.836,2.527-19.569,1.381-10.577-1.641-21.223.816-31.8-.009-6.43-2.961-11.835-2.527-18.078-.99-10.157,1.754-19.569-.408-30.076-1-4.589-1.989-9.761-1.407-14.257-.017-1.957-.347-3.494,2.4-5.381.478-3.867.894-8.084,2.093-11.974.017-5.358,1.32-10.018,1.025-14.723,1.068-3.4-1.042-5.055.8-8.177,1.963a115.52,115.52,0,0,0-13.908.46c-5.2-1.138-10.437-.4-15.632-.035-6.267-1.424-11.788.4-17.193,1.051-5.428,1.685-10.74-.582-16.61,1.6-6.034,1.259-12.347-.035-18.684.486-6.337-.582-12.72-.026-18.893-.13-8.62-.313-18.195,3.335-26.768.026-9.365,1.511-16.657-5.758-24.648-3.882-8.69-3.248-21.34-2.727-31.054-.608-7.571-.217-14.886-.894-21.712,1.372-.536.816-2.19-1.285-2.819.182-1.957,2.188-3.215.122-5.451,1.65-2.982.191-7.851-.894-11.3,1.676-3.984.955-9.249.6-13.326.052-7.595-1.233-13.978,2.866-21.736,1.546a32.82,32.82,0,0,0-15.1.2c-5.731-.087-11.765-.981-17.356,1.4-3.378-.808-6.01,1.6-9.761.356-6.5.191-14.327.391-20.757.035-9.528-.035-15.073-2.188-24.951-4.038-11.136.269-21.363.3-32.079.886-5.754-.591-11.881-.834-18.055.729-6.174,1.728-12.37-2.093-18.334-.069-7.129-1.294-13.792-.99-20.99-1.042-9.132.59-19.522-1.068-28.329.521-4.38,2.1-8.457,1.12-12.673,1.129-5.987.1-13.908-.669-20.082,1.363a63.1,63.1,0,0,1-16,.495c-6.639,2.223-11.159-1.285-16.68-1.607-8.55-3.474-16.96-2.336-27.886-3.873-3.355-.243-11.485,1.937-18.87-.087-7.385.469-14,.452-14.281,1.554-3.168,1.5-5.754-1.7-8.992-.99-5.1.773-10.693-.973-15.865.035-7.175-.33-16.238-.234-23.157.087-1.561,3.96-3.378-.347-5.428.808-2.586,1.138-5.172,3.274-7.758.226-5.824.217-9.575.426-13.628-1.372-2.027-3.309-2.353-1.615-4.892-2.327-2.912,2.1-6.523-1.016-9.412-2.379-6.639-.973-19.872-1.494-24.6,1.1-2.7,1.416-5.335.712-9.319,2.232-2.772,1.407-5.218.894-8.783,1.659C10.8,66.8,4.906,68.131.27,66.68V9.14H185.128c22.435-.061,46.453,0,71.8,0,25.347.113,52,0,79.721,0,27.723.3,56.494,0,86.057,0,29.563-.339,59.919,0,90.81,0,30.891-.269,62.295,0,93.978,0,31.683.321,63.623,0,95.562,0,31.939.026,63.879,0,95.562,0,31.683.043,63.087-.035,93.978,0,30.891.278,61.246-.208,90.81,0,29.563.243,58.335-.156,86.057,0,27.723.313,54.374-.729,79.72,0,25.347.069,49.365.017,71.8,0,22.434-.043,43.285-.182,62.295,0h122.469l3.424,10.03c.979,2.562,2.074,5.731,3.192,9.005,1.095,2.866,2.213,6.322,3.192,9.631,1.957,4.16,3.424,10.7,3.424,10.03Z" transform="translate(0.452 -0.09)" fill="#92232a"/>
          </g>
        </g>
      </g>
    </g>
    <rect id="footer-bg-shape" width="1080" height="22" transform="translate(691 -2932)" fill="#92232a"/>
  </g>
</svg>
